<?xml version="1.0" encoding="utf-8"?>
<!-- Generator: Adobe Illustrator 14.0.0, SVG Export Plug-In  -->
<!DOCTYPE svg PUBLIC "-//W3C//DTD SVG 1.1//EN" "http://www.w3.org/Graphics/SVG/1.1/DTD/svg11.dtd" [
	<!ENTITY ns_flows "http://ns.adobe.com/Flows/1.0/">
]>
<svg version="1.1"
	 xmlns="http://www.w3.org/2000/svg" xmlns:xlink="http://www.w3.org/1999/xlink" xmlns:a="http://ns.adobe.com/AdobeSVGViewerExtensions/3.0/"
	 x="0px" y="0px" width="800px" height="720px" viewBox="125.385 41.606 800 720" enable-background="new 125.385 41.606 800 720"
	 xml:space="preserve">
<defs>
</defs>
<rect x="125.885" y="42.106" display="none" fill="#2B0D17" width="898.46" height="761.96"/>
<rect x="125.885" y="42.106" display="none" fill="none" stroke="#7385A8" width="898.46" height="761.96"/>
<rect x="156.775" y="52.996" display="none" fill="#1F1F26" width="800" height="720"/>
<rect x="156.775" y="52.996" display="none" fill="none" stroke="#7385A8" width="800" height="720"/>
<polygon display="none" fill="#7385A8" points="372.111,528.945 322.902,528.945 322.902,421.774 413.831,264.243 456.451,288.844 
	372.111,434.956 "/>
<polygon display="none" fill="#7385A8" points="368.817,440.664 326.196,416.063 522.771,75.509 634.534,269.12 634.534,377.19 
	585.322,377.19 585.322,282.304 522.771,173.946 "/>
<path display="none" fill="#7385A8" d="M915.927,756.606H473.868l155.555-209.595L266.462,756.606h-136.84l108.503-187.972
	c1.968-3.646,5.204-7.281,10.402-10.322l189.642-110.937c96.335-56.353,194.604-113.833,202.354-118.372l21.364-12.488
	l87.444,151.497L613.289,651.324L794.685,546.57L915.927,756.606L915.927,756.606z M614.592,707.396h216.11l-54.027-93.595
	L614.592,707.396L614.592,707.396z M214.85,707.396h38.426l433.065-250.081l-42.333-73.336
	c-75.725,44.296-325.43,190.367-366.087,214.15L214.85,707.396L214.85,707.396z"/>
<polygon display="none" fill="#7385A8" points="423.081,499.1 335.445,449.81 335.201,407.057 598.104,255.239 622.712,297.856 
	397.2,428.084 447.202,456.208 "/>
<polyline display="none" fill="none" stroke="#000000" stroke-width="55" points="697.812,433.611 719.313,470.86 267.779,731.607 
	181.774,731.607 267.779,582.611 525.795,433.615 439.794,284.611 353.788,433.611 "/>
<polyline display="none" fill="none" stroke="#000000" stroke-width="55" points="439.794,284.611 525.799,135.615 697.812,433.611 
	"/>
<polyline display="none" fill="none" stroke="#000000" stroke-width="55" points="783.82,582.611 525.795,731.607 461.293,619.86 
	525.795,731.607 869.826,731.607 783.82,582.611 697.815,632.278 "/>
<line display="none" fill="none" stroke="#000000" stroke-width="60" x1="678.704" y1="193.608" x2="372.896" y2="193.608"/>
<line display="none" fill="none" stroke="#000000" stroke-width="60" x1="678.704" y1="573.608" x2="372.896" y2="573.608"/>
<line display="none" fill="none" stroke="#000000" stroke-width="40" stroke-linejoin="bevel" x1="583.138" y1="292.938" x2="525.385" y2="292.943"/>
<polyline display="none" fill="none" stroke="#000000" stroke-width="40" points="525.8,491.607 439.798,417.11 372.899,359.16 "/>
<line display="none" fill="none" stroke="#000000" stroke-width="40" x1="525.8" y1="491.607" x2="678.704" y2="359.163"/>
<line display="none" fill="none" stroke="#000000" stroke-width="40" x1="611.803" y1="417.11" x2="525.8" y2="491.607"/>
<line display="none" fill="none" stroke="#000000" stroke-width="40" x1="525.8" y1="491.607" x2="678.7" y2="359.161"/>
<polyline display="none" fill="none" stroke="#000000" stroke-width="40" stroke-linejoin="bevel" points="468.462,292.938 
	372.896,359.163 525.8,491.607 "/>
<polyline display="none" fill="none" stroke="#000000" stroke-width="40" stroke-linejoin="bevel" points="372.896,359.163 
	678.704,359.163 525.8,491.607 678.704,359.163 678.704,359.163 525.8,491.607 "/>
<polyline display="none" fill="none" stroke="#000000" stroke-width="40" stroke-linejoin="bevel" points="468.462,359.163 
	525.8,491.607 583.138,359.16 "/>
<polyline display="none" fill="none" stroke="#000000" stroke-width="40" points="420.679,326.05 468.462,292.938 526.215,292.943 
	"/>
<polyline display="none" fill="none" stroke="#000000" stroke-width="40" points="525.385,292.943 583.138,292.938 630.921,326.05 
	"/>
<polyline display="none" fill="none" stroke="#000000" stroke-width="40" stroke-linejoin="bevel" points="630.921,326.05 
	583.138,292.938 678.704,359.163 602.254,425.383 "/>
<polyline display="none" fill="none" stroke="#000000" stroke-width="40" points="602.254,425.383 525.8,491.607 449.346,425.383 
	"/>
<polyline display="none" fill="none" stroke="#000000" stroke-width="40" stroke-linejoin="bevel" points="468.462,292.938 
	525.8,359.163 583.138,292.938 "/>
<line display="none" fill="none" stroke="#5C293D" stroke-width="40" x1="608.43" y1="252.525" x2="422.543" y2="252.525"/>
<line display="none" fill="none" stroke="#5C293D" stroke-width="40" x1="608.43" y1="483.51" x2="422.543" y2="483.51"/>
<polygon display="none" fill="none" stroke="#5C293D" stroke-width="10" stroke-linejoin="bevel" points="515.486,353.159 
	515.486,373.276 515.486,433.666 585.194,373.285 585.194,353.157 "/>
<polyline display="none" fill="none" stroke="#5C293D" stroke-width="10" stroke-linejoin="bevel" points="515.486,353.159 
	550.334,363.219 585.194,373.285 "/>
<line display="none" fill="none" stroke="#5C293D" stroke-width="10" stroke-linejoin="bevel" x1="585.194" y1="353.157" x2="515.486" y2="373.276"/>
<polyline display="none" fill="none" stroke="#5C293D" stroke-width="10" stroke-linejoin="bevel" points="550.334,363.219 
	596.818,363.216 596.818,345.113 "/>
<rect y="6.716" display="none" fill="#141921" width="1027.447" height="862.458"/>
<polygon display="none" fill="none" stroke="#5C293D" stroke-width="20" points="515.486,433.666 596.818,363.216 596.818,345.113 
	550.338,312.904 480.633,312.904 434.154,345.113 434.163,363.222 "/>
<polyline display="none" fill="none" stroke="#5C293D" stroke-width="20" stroke-linejoin="bevel" points="550.338,312.904 
	515.501,354.166 480.633,312.904 "/>
<polyline display="none" fill="none" stroke="#5C293D" stroke-width="20" stroke-linejoin="bevel" points="480.633,354.168 
	515.486,433.666 550.338,354.166 "/>
<line display="none" fill="none" stroke="#5C293D" stroke-width="30" x1="596.818" y1="354.166" x2="434.154" y2="354.168"/>
<rect x="332.36" y="204.967" transform="matrix(0.7071 -0.7071 0.7071 0.7071 -109.3884 444.248)" display="none" fill="none" stroke="#B0A3B8" stroke-width="12" width="298.402" height="298.402"/>
<line display="none" fill="none" stroke="#B0A3B8" stroke-width="12" x1="481.556" y1="565.17" x2="481.556" y2="143.165"/>
<line display="none" fill="none" stroke="#B0A3B8" stroke-width="12" x1="692.561" y1="354.167" x2="270.552" y2="354.167"/>
<rect x="270.552" y="143.163" display="none" fill="none" stroke="#B0A3B8" stroke-width="12" width="422.009" height="422.008"/>
<rect x="376.054" y="248.665" display="none" fill="none" stroke="#B0A3B8" stroke-width="12" width="211.004" height="211.004"/>
<rect x="406.955" y="279.562" transform="matrix(-0.7071 -0.7071 0.7071 -0.7071 571.6365 945.1038)" display="none" fill="none" stroke="#B0A3B8" stroke-width="12" width="149.201" height="149.2"/>
<rect x="428.805" y="301.417" display="none" fill="none" stroke="#B0A3B8" stroke-width="12" width="105.502" height="105.502"/>
<polygon display="none" fill="none" stroke="#B0A3B8" stroke-width="12" points="428.805,406.918 270.552,354.167 428.805,301.417 
	481.556,143.165 534.307,301.417 692.561,354.167 534.307,406.918 481.556,565.17 "/>
<line display="none" fill="none" stroke="#B0A3B8" stroke-width="12" x1="376.054" y1="319" x2="270.552" y2="143.165"/>
<line display="none" fill="none" stroke="#B0A3B8" stroke-width="12" x1="446.389" y1="459.668" x2="270.552" y2="565.17"/>
<polyline display="none" fill="none" stroke="#B0A3B8" stroke-width="12" points="516.723,459.668 692.561,565.17 481.556,354.167 
	270.552,565.17 376.054,389.335 "/>
<line display="none" fill="none" stroke="#B0A3B8" stroke-width="12" x1="587.058" y1="389.335" x2="692.561" y2="565.17"/>
<polyline display="none" fill="none" stroke="#B0A3B8" stroke-width="12" points="587.058,319 692.561,143.165 481.556,354.167 
	270.552,143.165 446.389,248.665 "/>
<line display="none" fill="none" stroke="#B0A3B8" stroke-width="12" x1="516.723" y1="248.665" x2="692.561" y2="143.165"/>
<rect x="349.679" y="275.04" display="none" fill="none" stroke="#B0A3B8" stroke-width="12" width="263.754" height="158.254"/>
<rect x="402.43" y="222.29" display="none" fill="none" stroke="#B0A3B8" stroke-width="12" width="158.252" height="263.756"/>
<polygon display="none" fill="none" stroke="#B0A3B8" stroke-width="12" points="349.679,433.293 270.552,433.293 349.679,565.17 
	"/>
<polygon display="none" fill="none" stroke="#B0A3B8" stroke-width="12" points="349.679,275.04 349.679,143.165 270.552,275.04 "/>
<polygon display="none" fill="none" stroke="#B0A3B8" stroke-width="12" points="402.43,486.045 270.552,486.045 402.43,565.17 "/>
<polygon display="none" fill="none" stroke="#B0A3B8" stroke-width="12" points="402.43,222.29 270.552,222.29 402.43,143.165 "/>
<polygon display="none" fill="none" stroke="#B0A3B8" stroke-width="12" points="560.682,222.29 692.561,222.29 560.682,143.165 "/>
<polygon display="none" fill="none" stroke="#B0A3B8" stroke-width="12" points="613.433,275.04 613.433,143.165 692.561,275.04 "/>
<polygon display="none" fill="none" stroke="#B0A3B8" stroke-width="12" points="613.433,433.293 613.433,565.17 692.561,433.293 
	"/>
<polygon display="none" fill="none" stroke="#B0A3B8" stroke-width="12" points="560.682,486.045 560.682,565.17 692.561,486.045 
	"/>
<polygon display="none" fill="none" stroke="#295E8C" stroke-width="30" points="481.561,209.102 349.679,354.162 402.43,459.663 
	481.556,459.668 560.682,459.663 613.433,354.168 534.308,267.126 481.561,209.102 550.363,285.361 481.556,285.361 
	412.749,285.361 "/>
<polyline display="none" fill="none" stroke="#295E8C" stroke-width="30" points="516.258,247.271 481.561,209.102 447.119,247.271 
	"/>
<line display="none" fill="none" stroke="#295E8C" stroke-width="30" x1="613.433" y1="354.168" x2="349.679" y2="354.162"/>
<polygon display="none" fill="none" stroke="#EB7357" stroke-width="30" points="481.556,499.232 613.433,354.168 560.682,248.666 
	402.43,248.662 349.679,354.162 "/>
<polygon display="none" fill="none" stroke="#D43B63" stroke-width="30" points="481.556,499.232 613.433,354.168 550.636,285.09 
	481.561,275.04 412.476,285.087 349.679,354.162 "/>
<polyline display="none" fill="none" stroke="#D43B63" stroke-width="30" points="582.033,319.628 534.303,336.036 481.553,336.898 
	428.803,336.036 381.073,319.629 "/>
<polyline display="none" fill="none" stroke="#D43B63" stroke-width="30" stroke-linejoin="bevel" points="428.805,336.036 
	481.556,499.232 534.303,336.036 "/>
<polygon display="none" fill="none" stroke="#D43B63" stroke-width="20" points="412.476,285.087 550.636,285.09 587.057,325.154 
	587.058,383.181 481.556,499.232 376.055,383.181 376.054,325.154 "/>
<line display="none" fill="none" stroke="#D43B63" stroke-width="20" x1="587.057" y1="325.154" x2="376.054" y2="325.154"/>
<polygon display="none" fill="none" stroke="#D43B63" stroke-width="20" points="481.556,248.662 516.723,195.915 446.389,195.915 
	"/>
<polyline display="none" fill="none" stroke="#D43B63" stroke-width="20" stroke-linejoin="bevel" points="481.561,383.181 
	534.307,325.154 587.058,383.181 481.561,383.181 376.055,383.181 428.805,325.154 481.561,383.181 "/>
<line display="none" fill="none" stroke="#D43B63" stroke-width="20" stroke-linejoin="bevel" x1="421.612" y1="433.293" x2="541.5" y2="433.293"/>
<polygon display="none" fill="none" stroke="#D43B63" stroke-width="20" points="481.556,499.232 587.058,383.181 376.055,383.181 
	"/>
<polygon display="none" fill="none" stroke="#D43B63" stroke-width="20" points="587.057,325.154 550.636,285.09 412.476,285.087 
	376.054,325.154 "/>
<polygon display="none" fill="none" stroke="#D43B63" stroke-width="20" points="446.389,195.915 516.723,195.915 481.556,248.662 
	"/>
<line display="none" fill="none" stroke="#D43B63" stroke-width="20" x1="376.055" y1="354.163" x2="587.057" y2="354.163"/>
<rect x="270.552" y="143.164" display="none" fill="none" stroke="#D43B63" stroke-width="30" width="422.009" height="422.006"/>
<rect x="125.385" y="41.606" display="none" fill="#EBD6DB" width="800" height="720"/>
<rect x="89.998" y="10" display="none" stroke="#87A1DB" stroke-width="20" width="883.456" height="783.212"/>
<polygon display="none" fill="none" stroke="#3D5759" stroke-width="15" points="525.384,632.385 694.822,632.385 694.822,184.014 
	355.947,184.014 355.947,632.385 "/>
<polygon display="none" fill="none" stroke="#8785A8" stroke-width="23" points="456.305,339.12 594.465,339.123 630.886,379.187 
	630.887,437.213 525.385,553.264 419.884,437.213 419.883,379.187 "/>
<line display="none" fill="none" stroke="#8785A8" stroke-width="23" x1="630.886" y1="379.187" x2="419.883" y2="379.187"/>
<polygon display="none" fill="none" stroke="#8785A8" stroke-width="23" points="525.385,302.694 560.552,249.947 490.218,249.947 
	"/>
<polyline display="none" fill="none" stroke="#8785A8" stroke-width="23" stroke-linejoin="bevel" points="525.39,437.213 
	578.136,379.187 630.887,437.213 525.39,437.213 419.884,437.213 472.634,379.187 525.39,437.213 "/>
<line display="none" fill="none" stroke="#8785A8" stroke-width="23" stroke-linejoin="bevel" x1="465.44" y1="487.327" x2="585.329" y2="487.327"/>
<polygon display="none" fill="none" stroke="#8785A8" stroke-width="23" points="594.465,339.123 630.886,379.187 630.887,437.213 
	525.385,553.264 419.884,437.213 419.883,379.187 456.305,339.12 490.218,339.123 525.385,379.187 560.552,339.12 "/>
<polygon display="none" fill="none" stroke="#8785A8" stroke-width="23" points="525.385,302.694 560.552,249.947 490.218,249.947 
	"/>
<polyline display="none" fill="none" stroke="#8785A8" stroke-width="23" points="419.884,437.213 472.634,379.187 525.39,437.213 
	"/>
<polyline display="none" fill="none" stroke="#8785A8" stroke-width="23" points="630.887,437.213 578.136,379.187 525.39,437.213 
	472.634,379.187 "/>
<line display="none" fill="none" stroke="#8785A8" stroke-width="23" x1="419.884" y1="437.213" x2="472.634" y2="379.187"/>
<line display="none" fill="none" stroke="#8785A8" stroke-width="23" x1="525.39" y1="437.213" x2="472.634" y2="379.187"/>
<polyline display="none" fill="none" stroke="#8785A8" stroke-width="23" points="446.259,466.227 472.631,437.213 525.387,495.24 
	578.136,437.213 604.512,466.227 "/>
<polyline display="none" fill="none" stroke="#383838" stroke-width="20" points="465.439,487.325 525.385,553.264 630.887,437.213 
	630.886,379.187 594.465,339.123 456.305,339.12 419.883,379.187 419.884,437.213 525.39,437.213 "/>
<line display="none" fill="none" stroke="#383838" stroke-width="20" x1="419.883" y1="379.187" x2="630.886" y2="379.187"/>
<polyline display="none" fill="none" stroke="#383838" stroke-width="20" stroke-linejoin="bevel" points="525.39,437.213 
	472.634,379.187 525.39,437.213 630.887,437.213 578.136,379.187 525.39,437.213 "/>
<polyline display="none" fill="none" stroke="#383838" stroke-width="20" points="525.385,553.264 465.44,487.327 585.329,487.327 
	"/>
<line display="none" fill="none" stroke="#383838" stroke-width="20" x1="419.884" y1="437.213" x2="472.634" y2="379.187"/>
<polygon display="none" fill="none" stroke="#8785A8" stroke-width="20" points="525.385,326.44 560.552,273.693 490.218,273.693 
	"/>
<polyline display="none" fill="none" stroke="#8785A8" stroke-width="20" points="578.136,379.187 472.634,379.187 419.884,437.213 
	525.385,553.264 630.887,437.213 578.136,379.187 472.634,379.187 "/>
<polyline display="none" fill="none" stroke="#8785A8" stroke-width="20" points="446.259,408.2 472.634,437.213 499.009,408.2 
	525.385,437.213 551.761,408.2 578.136,437.213 604.511,408.2 "/>
<line display="none" fill="none" stroke="#8785A8" stroke-width="20" x1="472.634" y1="437.213" x2="499.009" y2="408.2"/>
<polyline display="none" fill="none" stroke="#8785A8" stroke-width="20" points="446.259,466.225 472.634,495.239 499.009,466.225 
	525.385,495.239 551.761,466.225 578.136,495.239 604.511,466.225 "/>
<polygon display="none" fill="none" stroke="#4A2E4F" stroke-width="20" points="525.385,553.264 578.433,494.913 630.887,437.213 
	578.136,379.187 472.634,379.187 419.884,437.213 "/>
<polyline display="none" fill="none" stroke="#4A2E4F" stroke-width="20" points="446.261,466.225 499.009,408.2 472.634,379.187 
	525.39,437.213 578.136,379.187 "/>
<line display="none" fill="none" stroke="#4A2E4F" stroke-width="20" x1="604.512" y1="466.225" x2="551.763" y2="408.2"/>
<polyline display="none" fill="none" stroke="#4A2E4F" stroke-width="20" points="604.511,408.2 578.13,437.22 525.385,495.239 
	472.637,437.22 446.259,408.2 "/>
<line display="none" fill="none" stroke="#4A2E4F" stroke-width="20" x1="472.634" y1="495.238" x2="499.007" y2="466.225"/>
<line display="none" fill="none" stroke="#4A2E4F" stroke-width="20" x1="551.763" y1="466.227" x2="578.433" y2="494.913"/>
<polygon display="none" fill="none" stroke="#524F4A" stroke-width="10" points="525.385,553.264 578.433,494.913 630.887,437.213 
	578.136,379.187 472.634,379.187 419.884,437.213 "/>
<polyline display="none" fill="none" stroke="#524F4A" stroke-width="10" points="499.009,408.2 472.634,379.187 525.39,437.213 
	578.136,379.187 "/>
<polyline display="none" fill="none" stroke="#524F4A" stroke-width="10" points="604.511,408.2 578.13,437.22 551.762,466.225 
	525.39,437.213 499.011,466.229 472.637,437.22 446.259,408.2 "/>
<polyline display="none" fill="none" stroke="#524F4A" stroke-width="10" points="604.511,408.2 551.763,466.227 525.385,494.913 
	499.007,466.225 446.259,408.2 "/>
<polygon display="none" fill="none" stroke="#EB7357" stroke-width="17" points="525.385,553.264 578.433,494.913 630.887,437.213 
	578.136,379.187 472.634,379.187 419.884,437.213 "/>
<polyline display="none" fill="none" stroke="#EB7357" stroke-width="17" points="499.009,408.2 472.634,379.187 525.39,437.213 
	578.136,379.187 "/>
<polyline display="none" fill="none" stroke="#EB7357" stroke-width="17" points="604.511,408.2 578.13,437.22 551.762,466.225 
	525.39,437.213 499.011,466.229 472.637,437.22 446.259,408.2 "/>
<polyline display="none" fill="none" stroke="#EB7357" stroke-width="17" points="578.433,494.913 551.763,466.227 525.39,437.213 
	499.007,466.225 472.634,495.238 "/>
<polyline display="none" fill="none" stroke="#EB7357" stroke-width="17" points="525.385,495.237 499.007,524.249 525.385,495.237 
	551.763,524.249 525.385,495.237 "/>
<polygon display="none" fill="none" stroke="#FFFFFF" stroke-width="5" points="525.385,553.264 578.433,494.913 630.887,437.213 
	578.136,379.187 472.634,379.187 419.884,437.213 "/>
<polyline display="none" fill="none" stroke="#FFFFFF" stroke-width="5" stroke-linejoin="bevel" points="578.433,494.913 
	551.763,466.227 525.39,437.213 499.007,466.225 472.634,495.238 "/>
<polyline display="none" fill="none" stroke="#FFFFFF" stroke-width="5" points="525.385,495.237 499.007,524.249 525.385,495.237 
	551.763,524.249 525.385,495.237 "/>
<polyline display="none" fill="none" stroke="#FFFFFF" stroke-width="5" points="419.884,437.213 525.39,437.213 630.887,437.213 
	"/>
<rect x="280.597" y="589.106" display="none" fill="none" width="489.573" height="84"/>
<text transform="matrix(1 0 0 1 280.5972 648.4839)" display="none" fill="#EB7357" font-family="'Futura-Medium'" font-size="72">Graphics Club</text>
<polygon display="none" fill="none" stroke="#4A2E4F" stroke-width="20" points="525.385,553.264 578.433,494.913 630.887,437.213 
	578.136,379.187 472.634,379.187 419.884,437.213 "/>
<line display="none" fill="none" stroke="#4A2E4F" stroke-width="20" x1="604.512" y1="466.225" x2="551.763" y2="408.2"/>
<polyline display="none" fill="none" stroke="#4A2E4F" stroke-width="20" points="499.007,466.225 472.634,495.238 578.136,379.187 
	525.39,437.213 472.634,379.187 499.009,408.2 446.261,466.225 "/>
<line display="none" fill="none" stroke="#4A2E4F" stroke-width="20" x1="578.433" y1="494.913" x2="472.634" y2="379.187"/>
<polyline display="none" fill="none" stroke="#4A2E4F" stroke-width="20" points="551.763,524.249 525.385,495.237 499.007,524.249 
	"/>
<polygon display="none" fill="none" stroke="#B0B8BF" stroke-width="20" points="525.385,553.264 578.433,494.913 630.887,437.213 
	578.136,379.187 472.634,379.187 419.884,437.213 "/>
<polyline display="none" fill="none" stroke="#B0B8BF" stroke-width="20" points="499.009,408.2 472.634,379.187 525.39,437.213 
	578.136,379.187 "/>
<line display="none" fill="none" stroke="#B0B8BF" stroke-width="20" x1="446.259" y1="466.225" x2="472.637" y2="437.22"/>
<line display="none" fill="none" stroke="#B0B8BF" stroke-width="20" x1="604.511" y1="466.227" x2="578.13" y2="437.22"/>
<polyline display="none" fill="none" stroke="#B0B8BF" stroke-width="20" points="604.511,408.2 578.13,437.22 525.385,495.239 
	472.637,437.22 446.259,408.2 "/>
<polygon display="none" fill="none" stroke="#B0B8BF" stroke-width="20" points="490.218,273.693 560.552,273.693 525.385,326.44 
	"/>
<polygon display="none" fill="none" stroke="#4A2E4F" stroke-width="20" points="446.259,466.227 525.385,553.264 578.433,494.913 
	604.511,466.227 604.511,437.22 604.512,408.2 578.136,379.187 472.634,379.187 446.26,408.2 446.259,437.213 "/>
<polyline display="none" fill="none" stroke="#4A2E4F" stroke-width="20" points="499.009,408.2 472.634,379.187 525.39,437.213 
	578.136,379.187 "/>
<line display="none" fill="none" stroke="#4A2E4F" stroke-width="20" x1="472.637" y1="437.22" x2="446.259" y2="466.225"/>
<line display="none" fill="none" stroke="#4A2E4F" stroke-width="20" x1="578.13" y1="437.22" x2="604.511" y2="466.227"/>
<polyline display="none" fill="none" stroke="#4A2E4F" stroke-width="20" points="446.259,408.2 472.637,437.22 525.385,495.239 
	578.13,437.22 604.511,408.2 "/>
<polyline display="none" fill="none" stroke="#FFFFFF" stroke-width="5" points="604.516,350.174 578.141,321.162 472.638,321.162 
	446.264,350.174 "/>
<polyline display="none" fill="none" stroke="#FFFFFF" stroke-width="5" points="578.141,321.162 525.394,379.188 472.638,321.162 
	499.014,350.174 "/>
<line display="none" fill="none" stroke="#FFFFFF" stroke-width="5" x1="578.135" y1="379.195" x2="604.516" y2="408.202"/>
<polygon display="none" fill="none" stroke="#A694B3" stroke-width="17" points="446.264,350.174 446.264,350.174 472.641,379.195 
	446.263,408.202 525.389,495.239 604.516,408.202 578.135,379.195 604.516,350.174 578.141,321.162 472.638,321.162 "/>
<polyline display="none" fill="none" stroke="#EBD6DB" stroke-width="20" points="446.259,466.225 419.884,437.213 472.641,379.195 
	578.135,379.195 630.887,437.213 604.511,466.227 525.385,553.264 446.259,466.225 472.637,437.22 578.13,437.22 604.511,466.227 
	"/>
<polyline display="none" fill="none" stroke="#EBD6DB" stroke-width="20" points="472.637,437.22 525.389,495.239 578.13,437.22 "/>
<polygon display="none" fill="none" stroke="#42333B" stroke-width="6" points="525.385,553.264 578.433,494.913 630.887,437.213 
	578.136,379.187 472.634,379.187 419.884,437.213 "/>
<polyline display="none" fill="none" stroke="#42333B" stroke-width="6" points="499.009,408.2 472.634,379.187 525.39,437.213 
	578.136,379.187 "/>
<polyline display="none" fill="none" stroke="#42333B" stroke-width="6" points="525.39,437.213 499.011,466.229 472.637,437.22 
	446.259,408.2 "/>
<polyline display="none" fill="none" stroke="#42333B" stroke-width="6" points="525.39,437.213 499.007,466.225 472.634,495.238 
	"/>
<polygon display="none" fill="none" stroke="#FFFFFF" stroke-width="5" points="525.385,553.264 578.433,494.913 630.887,437.213 
	578.136,379.187 472.634,379.187 419.884,437.213 "/>
<polyline display="none" fill="none" stroke="#FFFFFF" stroke-width="5" points="578.136,379.187 525.39,437.213 499.009,408.2 
	499.009,408.2 "/>
<polyline display="none" fill="none" stroke="#FFFFFF" stroke-width="5" points="551.763,524.249 525.385,495.237 499.007,524.249 
	"/>
<polyline display="none" fill="none" stroke="#FFFFFF" stroke-width="5" points="525.385,495.237 525.39,437.213 472.634,379.187 
	"/>
<polygon display="none" fill="none" stroke="#FFFFFF" stroke-width="5" points="490.218,273.693 560.552,273.693 525.385,326.44 "/>
<polygon display="none" fill="none" stroke="#524F4A" stroke-width="17" points="490.218,273.693 560.552,273.693 525.385,326.44 
	"/>
<polyline display="none" fill="none" stroke="#EBD6DB" stroke-width="20" points="578.136,379.187 604.516,350.174 578.141,321.162 
	472.638,321.162 446.264,350.174 472.641,379.195 "/>
<polyline display="none" fill="none" stroke="#EBD6DB" stroke-width="20" points="557.757,401.606 525.39,437.213 493.017,401.606 
	"/>
<line display="none" fill="none" stroke="#EBD6DB" stroke-width="20" x1="446.259" y1="408.2" x2="472.637" y2="437.22"/>
<line display="none" fill="none" stroke="#EBD6DB" stroke-width="20" x1="604.516" y1="408.202" x2="578.13" y2="437.22"/>
<line display="none" fill="none" stroke="#EBD6DB" stroke-width="20" x1="472.634" y1="495.238" x2="525.39" y2="437.213"/>
<line display="none" fill="none" stroke="#EBD6DB" stroke-width="20" x1="578.433" y1="494.913" x2="525.39" y2="437.213"/>
<path display="none" fill="none" stroke="#FFFFFF" stroke-width="6" d="M445.76,414.047c0,0,32.298-0.02,39.343-0.012
	c7.044,0.008,12.69-27.919,18.205-36.812c5.514-8.893,7.751,6.988,13.84,21.757c5.692,13.807,22.633,13.116,22.633,13.116
	c17.202-2.346,24.02-15.534,28.723-21.36c7.622-9.443,12.34-29.126,23.17-12.229c12.593,19.647,26.184,35.54,41.883,35.54
	c11.454,0,11.454,0,11.454,0"/>
<path display="none" fill="none" stroke="#FFFFFF" stroke-width="6" d="M572.444,384.82c-7.305-0.497-7.034-9.458-15.18-26.947
	c-4.795-10.294-7.58,13.404-10.647,24.905c0,0-7.44,39.386-35.556-0.868"/>
<path display="none" fill="none" stroke="#FFFFFF" stroke-width="6" d="M445.76,382.692c0,0,7.485,1.407,13.496-7.16
	c6.346-9.044,6.81-50.968,11.252-38.911c4.441,12.057,9.765,33.37,9.765,33.37"/>
<path display="none" fill="none" stroke="#FFFFFF" stroke-width="6" d="M507.089,374.869c0,0,7.303,14.695,12.383-2.979
	c4.23-14.722,10.012-11.317,13.819-1.325c4.194,11.01,8.889,13.688,10.788,20.021"/>
<path display="none" fill="none" stroke="#FFFFFF" stroke-width="6" d="M503.308,377.224c-5.908,14.586-9.322-2.57-9.322-2.57
	s-1.686-4.047-3-9.306c-3.524-14.099-5.887-17.132-13.961,20.358c-0.437,2.025-4.382,9.742-9.73,9.742c-10.999,0-21.534,0-21.534,0"
	/>
<path display="none" fill="none" stroke="#FFFFFF" stroke-width="6" d="M589.522,375.532c6.885-5.745,7.016-35.146,15.053-15.853
	c7.872,18.896,14.595,21.796,24.113,21.796h13.505"/>
<path display="none" fill="none" stroke="#FFFFFF" stroke-width="6" d="M594.47,382.778c0,0,8.379,10.129,21.617,10.129
	s26.106,0,26.106,0"/>
<polygon display="none" fill="none" stroke="#4A2E4F" stroke-width="5" points="465.099,387.476 429.474,447.762 475.146,498.001 
	525.385,553.264 575.624,498.001 621.297,447.762 585.671,387.476 525.385,379.187 "/>
<rect x="419.884" y="342.261" display="none" fill="none" stroke="#4A2E4F" stroke-width="5" width="211.003" height="211.003"/>
<line display="none" fill="none" stroke="#4A2E4F" stroke-width="5" x1="630.887" y1="342.261" x2="419.884" y2="553.264"/>
<line display="none" fill="none" stroke="#4A2E4F" stroke-width="5" x1="419.884" y1="342.261" x2="630.887" y2="553.264"/>
<polyline display="none" fill="none" stroke="#4A2E4F" stroke-width="5" points="525.385,553.264 525.385,447.762 630.887,447.762 
	"/>
<polyline display="none" fill="none" stroke="#4A2E4F" stroke-width="5" points="525.39,342.261 525.385,447.762 419.884,447.762 
	"/>
<polygon display="none" fill="none" stroke="#383633" stroke-width="5" points="578.141,342.261 630.887,395.012 630.887,500.518 
	578.141,553.264 472.637,553.264 419.884,500.518 419.884,395.012 472.637,342.261 "/>
<polyline display="none" fill="none" stroke="#383633" stroke-width="5" points="472.637,342.261 525.385,447.762 578.141,342.261 
	"/>
<polyline display="none" fill="none" stroke="#383633" stroke-width="5" points="472.637,553.264 525.385,447.762 578.141,553.264 
	"/>
<polyline display="none" fill="none" stroke="#383633" stroke-width="5" points="419.884,500.518 525.385,447.762 419.884,395.012 
	"/>
<polyline display="none" fill="none" stroke="#383633" stroke-width="5" points="630.887,395.012 525.385,447.762 630.887,500.518 
	"/>
<polygon display="none" fill="none" stroke="#383633" stroke-width="5" points="560.556,377.428 595.721,412.594 595.721,482.928 
	560.556,518.097 490.219,518.097 455.053,482.932 455.052,412.596 490.22,377.429 "/>
<polygon display="none" fill="none" stroke="#42333B" stroke-width="6" points="560.556,378.687 595.721,415.113 595.721,465.351 
	560.556,518.097 490.219,518.097 463.844,478.536 455.053,412.596 490.22,377.429 "/>
<polyline display="none" fill="none" stroke="#42333B" stroke-width="6" stroke-linejoin="bevel" points="630.887,395.012 
	595.721,415.113 630.887,342.261 560.556,378.687 419.884,342.261 490.22,377.429 419.884,395.012 "/>
<polygon display="none" fill="none" stroke="#42333B" stroke-width="6" stroke-linejoin="bevel" points="419.884,553.264 
	419.884,395.012 455.053,412.596 490.222,430.181 463.844,478.536 "/>
<polyline display="none" fill="none" stroke="#42333B" stroke-width="6" stroke-linejoin="bevel" points="551.764,421.391 
	560.556,465.348 595.721,465.351 560.556,378.687 551.764,421.391 490.22,377.429 490.222,430.181 551.764,421.391 463.844,478.536 
	546.488,489.965 560.556,465.348 463.844,478.536 "/>
<polyline display="none" fill="none" stroke="#42333B" stroke-width="6" stroke-linejoin="bevel" points="560.556,518.097 
	630.887,553.264 595.721,465.351 490.219,518.097 472.637,553.264 560.556,518.097 578.141,553.264 "/>
<line display="none" fill="none" stroke="#42333B" stroke-width="6" stroke-linejoin="bevel" x1="595.721" y1="415.113" x2="630.887" y2="553.264"/>
<polyline display="none" fill="none" stroke="#42333B" stroke-width="6" points="472.637,553.264 463.844,478.536 419.884,395.012 
	"/>
<line display="none" fill="none" stroke="#42333B" stroke-width="6" x1="560.556" y1="378.687" x2="578.136" y2="342.261"/>
<line display="none" fill="none" stroke="#42333B" stroke-width="6" x1="463.844" y1="478.536" x2="419.884" y2="500.513"/>
<polyline display="none" fill="none" stroke="#524F4A" stroke-width="10" stroke-linejoin="bevel" points="578.136,494.913 
	472.929,494.913 472.634,379.187 525.39,437.213 472.929,494.913 "/>
<line display="none" fill="none" stroke="#524F4A" stroke-width="10" x1="525.39" y1="437.213" x2="630.887" y2="437.213"/>
<polygon display="none" fill="none" stroke="#FFFFFF" stroke-width="10" stroke-linecap="round" points="525.385,378.058 
	463.844,478.536 586.926,478.536 "/>
<line display="none" fill="none" stroke="#FFFFFF" stroke-width="10" x1="490.22" y1="401.606" x2="569.855" y2="401.606"/>
<polyline display="none" fill="none" stroke="#FFFFFF" stroke-width="10" points="560.556,378.687 595.721,415.113 595.721,465.351 
	531.726,529.629 472.637,553.264 419.884,500.513 419.884,395.012 490.22,377.429 560.556,378.687 505.166,388.105 "/>
<polygon display="none" fill="none" stroke="#FFFFFF" stroke-width="10" stroke-linejoin="bevel" points="490.22,377.429 
	490.222,430.181 463.844,478.536 455.053,412.596 "/>
<polyline display="none" fill="none" stroke="#FFFFFF" stroke-width="10" stroke-linejoin="bevel" points="419.884,395.012 
	455.053,412.596 490.222,430.181 551.764,421.391 560.556,378.687 595.721,465.351 560.556,465.348 546.488,489.965 
	490.219,518.097 472.637,553.264 463.844,478.536 551.764,421.391 490.22,377.429 "/>
<line display="none" fill="none" stroke="#FFFFFF" stroke-width="10" stroke-linejoin="bevel" x1="560.556" y1="465.348" x2="551.764" y2="421.391"/>
<polyline display="none" fill="none" stroke="#FFFFFF" stroke-width="10" stroke-linejoin="bevel" points="490.219,518.097 
	463.844,478.536 546.488,489.965 531.726,529.629 "/>
<polyline display="none" fill="none" stroke="#FFFFFF" stroke-width="10" points="490.22,377.429 560.556,378.687 582.682,401.606 
	"/>
<polyline display="none" fill="none" stroke="#42333B" stroke-width="10" points="630.887,342.261 560.556,378.687 595.721,415.113 
	595.721,465.351 560.556,518.097 490.219,518.097 462.589,478.536 419.884,395.012 "/>
<polyline display="none" fill="none" stroke="#42333B" stroke-width="10" points="472.637,553.264 490.219,518.097 595.721,465.351 
	560.556,378.687 490.22,377.429 419.884,395.012 419.884,553.264 490.222,430.181 455.053,412.596 419.884,342.261 560.556,378.687 
	578.136,342.261 630.887,342.261 595.721,415.113 630.887,553.264 560.556,518.097 472.637,553.264 462.589,478.536 
	419.884,500.513 "/>
<polyline display="none" fill="none" stroke="#42333B" stroke-width="10" points="419.884,342.261 490.22,377.429 551.764,421.391 
	560.556,465.348 490.219,518.097 "/>
<polyline display="none" fill="none" stroke="#42333B" stroke-width="10" points="419.884,395.012 455.053,412.596 462.589,478.536 
	551.764,421.391 560.556,378.687 "/>
<polyline display="none" fill="none" stroke="#42333B" stroke-width="10" stroke-linejoin="bevel" points="455.053,412.596 
	490.22,377.429 490.222,430.181 551.764,421.391 "/>
<line display="none" fill="none" stroke="#42333B" stroke-width="10" stroke-linejoin="bevel" x1="464.518" y1="477.299" x2="530.651" y2="487.775"/>
<polyline display="none" fill="none" stroke="#42333B" stroke-width="10" points="630.887,553.264 595.721,465.351 560.556,465.348 
	"/>
<polygon display="none" fill="none" stroke="#8785A8" stroke-width="15" points="560.556,518.097 595.721,465.351 595.721,415.113 
	560.556,378.687 490.22,377.429 455.053,412.596 462.589,478.536 490.219,518.097 "/>
<polyline display="none" fill="none" stroke="#8785A8" stroke-width="15" points="595.721,465.351 560.556,465.348 490.219,518.097 
	551.764,421.391 "/>
<polyline display="none" fill="none" stroke="#8785A8" stroke-width="15" points="560.556,378.687 551.764,421.391 462.589,478.536 
	"/>
<polyline display="none" fill="none" stroke="#8785A8" stroke-width="15" points="560.556,465.348 551.764,421.391 490.22,377.429 
	"/>
<rect x="450.785" y="267.661" transform="matrix(-0.7071 0.7071 -0.7071 -0.7071 1138.9048 212.7726)" display="none" fill="none" stroke="#EB7357" stroke-width="10" width="149.201" height="149.201"/>
<rect x="450.784" y="478.663" transform="matrix(-0.7071 0.7071 -0.7071 -0.7071 1288.1052 572.9749)" display="none" fill="none" stroke="#EB7357" stroke-width="10" width="149.202" height="149.201"/>
<polygon display="none" fill="none" stroke="#EB7357" stroke-width="10" points="736.388,553.263 841.889,447.762 736.388,338.106 
	630.887,447.762 "/>
<rect x="239.783" y="373.162" transform="matrix(-0.7071 -0.7071 0.7071 -0.7071 220.071 986.6808)" display="none" fill="none" stroke="#EB7357" stroke-width="10" width="149.201" height="149.201"/>
<rect x="434.002" y="289.511" display="none" fill="none" stroke="#4A2E4F" stroke-width="20" width="182.766" height="316.503"/>
<circle display="none" fill="none" stroke="#4A2E4F" stroke-width="20" cx="525.386" cy="486.395" r="52.751"/>
<circle display="none" fill="none" stroke="#4A2E4F" stroke-width="20" cx="525.386" cy="342.261" r="14.155"/>
<polygon display="none" fill="none" stroke="#4A2E4F" stroke-width="20" points="616.769,711.513 616.77,764.267 434.002,764.267 
	434.002,711.514 525.385,711.516 "/>
<line display="none" fill="none" stroke="#4A2E4F" stroke-width="20" x1="525.385" y1="711.516" x2="525.385" y2="606.014"/>
<polyline display="none" fill="none" stroke="#4A2E4F" stroke-width="20" points="616.769,289.51 616.77,237.7 434.002,237.7 
	435.065,287.713 "/>
<polygon display="none" fill="none" stroke="#4A2E4F" stroke-width="15" points="472.635,356.378 434.002,395.012 486.752,447.762 
	434.002,500.512 472.635,539.146 525.385,486.395 578.136,539.146 616.77,500.513 564.019,447.762 616.77,395.012 578.136,356.378 
	525.385,409.128 "/>
<polygon display="none" fill="none" stroke="#4A2E4F" stroke-width="15" points="630.887,447.762 525.385,553.264 419.884,447.762 
	525.386,342.261 558.819,375.695 525.386,409.128 564.019,447.762 597.453,414.329 "/>
<polyline display="none" fill="none" stroke="#4A2E4F" stroke-width="15" points="491.952,375.695 525.386,409.128 453.885,481.606 
	"/>
<circle display="none" fill="none" stroke="#4A2E4F" stroke-width="15" cx="525.386" cy="447.762" r="19.316"/>
<polygon display="none" fill="none" stroke="#4A2E4F" stroke-width="15" points="494.485,373.162 556.286,373.162 599.986,416.862 
	599.986,478.663 556.286,522.363 494.484,522.363 453.318,481.197 450.785,416.862 "/>
<polygon display="none" fill="none" stroke="#4A2E4F" stroke-width="15" points="367.134,356.377 367.134,539.146 472.635,539.146 
	525.386,475.606 578.136,539.146 683.637,539.147 683.637,356.376 "/>
<polygon display="none" fill="none" stroke="#4A2E4F" stroke-width="15" points="472.635,356.378 525.386,342.261 578.136,356.378 
	616.77,395.012 630.887,447.762 616.77,500.513 578.136,539.146 525.386,553.264 472.635,539.146 434.002,500.512 419.884,447.762 
	434.002,395.012 "/>
<polygon display="none" fill="none" stroke="#4A2E4F" stroke-width="15" points="525.385,373.162 578.137,395.012 599.986,447.762 
	578.137,500.512 525.386,522.363 472.636,500.512 450.785,447.762 472.635,395.012 "/>
<polyline display="none" fill="none" stroke="#4A2E4F" stroke-width="15" points="450.785,447.762 525.386,447.762 578.137,395.012 
	"/>
<polygon display="none" fill="none" stroke="#4A2E4F" stroke-width="20" points="616.77,395.012 616.77,553.264 434.002,552.321 
	434.002,395.012 "/>
<line display="none" fill="none" stroke="#4A2E4F" stroke-width="20" x1="578.137" y1="433.644" x2="472.635" y2="433.644"/>
<path display="none" fill="none" stroke="#4A2E4F" stroke-width="20" d="M450.756,395.01c16.553-23.374,43.81-38.632,74.63-38.632
	c30.819,0,58.076,15.257,74.628,38.63"/>
<polygon display="none" fill="none" stroke="#004761" stroke-width="20" points="525.386,486.397 434.002,395.012 472.636,356.379 
	525.387,409.13 578.136,356.379 616.769,395.013 "/>
<polyline display="none" fill="none" stroke="#004761" stroke-width="20" points="564.02,447.762 616.769,500.513 578.137,539.147 
	525.386,486.397 472.635,539.146 434.002,500.513 486.752,447.763 "/>
<polyline display="none" fill="none" stroke="#004761" stroke-width="20" points="597.453,481.198 630.887,447.763 596.886,414.896 
	"/>
<polyline display="none" fill="none" stroke="#004761" stroke-width="20" points="558.821,519.831 525.385,553.264 491.952,519.832 
	"/>
<polyline display="none" fill="none" stroke="#004761" stroke-width="20" points="453.317,481.198 419.884,447.763 453.317,414.896 
	"/>
<polyline display="none" fill="none" stroke="#004761" stroke-width="20" points="558.821,375.696 525.386,342.261 491.952,375.695 
	"/>
<polyline display="none" fill="none" stroke="#004761" stroke-width="15" points="578.132,461.876 616.769,500.513 578.137,539.147 
	539.501,500.511 "/>
<polyline display="none" fill="none" stroke="#004761" stroke-width="15" points="511.273,500.508 472.635,539.146 434.002,500.513 
	472.629,461.876 "/>
<polygon display="none" fill="#FFFFFF" stroke="#004761" stroke-width="15" points="525.386,447.762 494.484,416.863 
	525.386,373.162 556.286,416.862 "/>
<circle display="none" fill="#FFFFFF" stroke="#004761" stroke-width="15" cx="525.385" cy="500.512" r="30.901"/>
<path display="none" fill="none" stroke="#004761" stroke-width="15" d="M525.386,297.762c0,0,28.166,0,33.434-30.9
	c3.315-25.506-22.935-31.422-33.815-65.593c-8.786,32.17-36.12,40.836-33.054,65.593
	C496.552,297.762,525.386,297.762,525.386,297.762z"/>
<polygon display="none" fill="none" stroke="#004761" stroke-width="20" points="525.386,486.397 434.002,395.012 472.636,356.379 
	525.387,409.13 578.136,356.379 616.769,395.013 "/>
<polyline display="none" fill="none" stroke="#004761" stroke-width="20" points="564.02,447.762 616.769,500.513 578.137,539.147 
	525.386,486.397 472.635,539.146 434.002,500.513 486.752,447.763 "/>
<polyline display="none" fill="none" stroke="#004761" stroke-width="20" points="597.453,481.198 630.887,447.763 596.886,414.896 
	"/>
<polyline display="none" fill="none" stroke="#004761" stroke-width="20" points="558.821,519.831 525.385,553.264 491.952,519.832 
	"/>
<polyline display="none" fill="none" stroke="#004761" stroke-width="20" points="453.317,481.198 419.884,447.763 453.317,414.896 
	"/>
<polyline display="none" fill="none" stroke="#004761" stroke-width="20" points="558.821,375.696 525.386,342.261 491.952,375.695 
	"/>
<polyline display="none" fill="none" stroke="#004761" stroke-width="15" points="578.132,461.876 616.769,500.513 578.137,539.147 
	539.501,500.511 "/>
<polyline display="none" fill="none" stroke="#004761" stroke-width="15" points="511.273,500.508 472.635,539.146 434.002,500.513 
	472.629,461.876 "/>
<path display="none" fill="none" stroke="#004761" stroke-width="15" d="M525.386,297.762c0,0,28.166,0,33.434-30.9
	c3.315-25.506-22.935-31.422-33.815-65.593c-8.786,32.17-36.12,40.836-33.054,65.593
	C496.552,297.762,525.386,297.762,525.386,297.762z"/>
<polyline display="none" fill="none" stroke="#000000" stroke-linecap="round" stroke-linejoin="round" points="419.883,447.762 
	630.887,447.762 525.385,342.26 525.385,553.264 "/>
<line display="none" fill="none" stroke="#000000" stroke-linecap="round" stroke-linejoin="round" x1="448.342" y1="375.696" x2="602.433" y2="519.831"/>
<line display="none" fill="none" stroke="#000000" stroke-linecap="round" stroke-linejoin="round" x1="448.337" y1="519.831" x2="602.433" y2="375.696"/>
<line display="none" fill="none" stroke="#000000" stroke-linecap="round" stroke-linejoin="round" x1="448.342" y1="476.222" x2="520.551" y2="404.294"/>
<line display="none" fill="none" stroke="#42333B" stroke-width="12" stroke-linecap="round" x1="500.388" y1="424.379" x2="539.501" y2="460.965"/>
<line display="none" fill="none" stroke="#42333B" stroke-width="12" stroke-linecap="round" x1="511.273" y1="460.962" x2="579.898" y2="396.773"/>
<circle display="none" fill="none" stroke="#42333B" stroke-width="12" cx="525.385" cy="447.762" r="105.502"/>
<circle display="none" fill="none" stroke="#EB7357" stroke-width="5" stroke-linecap="round" stroke-linejoin="round" cx="525.385" cy="447.762" r="4.51"/>
<line display="none" fill="none" stroke="#EB7357" stroke-width="5" stroke-linecap="round" stroke-linejoin="round" x1="525.385" y1="443.252" x2="525.385" y2="409.13"/>
<line display="none" fill="none" stroke="#EB7357" stroke-width="5" stroke-linecap="round" stroke-linejoin="round" x1="525.385" y1="519.831" x2="525.385" y2="452.272"/>
<polygon display="none" fill="none" stroke="#AB7357" stroke-width="10" points="494.485,373.162 556.286,373.162 578.137,395.011 
	578.137,433.644 525.386,486.396 472.635,433.645 472.635,395.012 "/>
<polygon display="none" fill="none" stroke="#AB7357" stroke-width="10" points="525.386,447.762 578.137,481.198 525.385,553.264 
	472.635,481.198 "/>
<polyline display="none" fill="none" stroke="#AB7357" stroke-width="10" stroke-linejoin="bevel" points="472.635,433.645 
	525.387,373.162 578.137,433.644 "/>
<polyline display="none" fill="none" stroke="#AB7357" stroke-width="10" points="492.732,453.742 525.386,416.862 558.04,453.742 
	"/>
<polygon display="none" fill="none" stroke="#F0F09C" stroke-width="10" points="492.732,453.742 525.387,409.13 558.04,453.742 
	525.386,486.396 "/>
<path display="none" fill="none" stroke="#AB7357" stroke-width="15" d="M525.386,316.545c0,0,38.862,43.379,23.646,53.619
	c-23.647,15.914-23.647,15.914-23.647,15.914s0,0-23.645-15.914C486.523,359.923,525.386,316.545,525.386,316.545z"/>
<path display="none" fill="none" stroke="#AB7357" stroke-width="15" d="M525.388,578.979c0,0,38.862-43.379,23.646-53.619
	c-23.647-15.914-23.647-15.914-23.647-15.914s0,0-23.645,15.914C486.525,535.602,525.388,578.979,525.388,578.979z"/>
<path display="none" fill="none" stroke="#AB7357" stroke-width="15" stroke-linejoin="round" d="M525.387,478.664
	c0,0-33.436,41.166-52.752,8.935c0,0-21.85-39.836,52.75-39.836c74.601,0,52.75-39.835,52.75-39.835
	c-19.316-32.232-52.752,21.851-52.752,21.851"/>
<path display="none" fill="none" stroke="#004761" stroke-width="15" d="M525.386,373.162c0,0,32.036,30.368,30.9,43.7
	c-0.928,10.886-30.901,30.9-30.901,30.9s-29.975-20.015-30.901-30.9C493.349,403.53,525.386,373.162,525.386,373.162z"/>
<path display="none" fill="none" stroke="#004761" stroke-width="15" d="M525.386,522.362c0,0-32.036-30.367-30.9-43.699
	c0.927-10.885,30.901-30.9,30.901-30.9s29.974,20.015,30.901,30.9C557.423,491.995,525.386,522.362,525.386,522.362z"/>
<polygon display="none" fill="none" stroke="#D43B63" stroke-width="2" points="525.386,342.261 472.635,433.645 578.135,433.645 
	"/>
<polyline display="none" fill="none" stroke="#D43B63" stroke-width="2" points="578.135,433.645 499.011,387.953 525.385,433.645 
	525.387,403.184 "/>
<polyline display="none" fill="none" stroke="#D43B63" stroke-width="2" points="472.635,433.645 551.76,387.953 499.011,387.953 
	541.868,393.665 "/>
<polyline display="none" fill="none" stroke="#D43B63" stroke-width="2" points="525.385,433.645 551.76,387.953 508.902,393.665 
	"/>
<polygon display="none" fill="none" stroke="#D43B63" stroke-width="2" points="485.823,410.799 512.198,410.799 499.011,433.645 
	"/>
<polygon display="none" fill="none" stroke="#D43B63" stroke-width="2" points="564.947,410.799 551.76,433.645 538.572,410.799 "/>
<polygon display="none" fill="none" stroke="#D43B63" stroke-width="2" points="512.198,365.107 538.573,365.107 525.387,387.953 
	"/>
<polygon display="none" fill="none" stroke="#D43B63" stroke-width="2" points="492.416,422.222 505.604,422.222 499.011,410.799 
	"/>
<polygon display="none" fill="none" stroke="#D43B63" stroke-width="2" points="551.76,410.799 545.166,422.222 558.354,422.222 "/>
<polygon display="none" fill="none" stroke="#D43B63" stroke-width="2" points="525.386,365.107 531.98,376.53 518.792,376.53 "/>
<polygon display="none" fill="none" stroke="#B59CBA" stroke-width="2" points="525.386,365.107 558.354,422.222 492.416,422.222 
	"/>
<polygon display="none" fill="none" stroke="#4A2E4F" stroke-width="2" points="531.979,422.222 545.166,399.375 538.573,387.954 
	512.197,387.953 505.604,399.376 518.792,422.222 "/>
<polyline display="none" fill="none" stroke="#D43B63" stroke-width="2" points="551.76,387.953 525.385,422.222 499.011,387.953 
	"/>
<line display="none" fill="none" stroke="#D43B63" stroke-width="2" x1="505.604" y1="410.799" x2="505.604" y2="399.376"/>
<line display="none" fill="none" stroke="#D43B63" stroke-width="2" x1="508.902" y1="416.51" x2="518.792" y2="422.222"/>
<line display="none" fill="none" stroke="#D43B63" stroke-width="2" x1="545.166" y1="410.799" x2="545.166" y2="399.375"/>
<line display="none" fill="none" stroke="#D43B63" stroke-width="2" x1="541.869" y1="416.51" x2="531.979" y2="422.222"/>
<line display="none" fill="none" stroke="#D43B63" stroke-width="2" x1="538.573" y1="387.954" x2="518.792" y2="376.529"/>
<line display="none" fill="none" stroke="#D43B63" stroke-width="2" x1="512.197" y1="387.953" x2="531.979" y2="376.532"/>
<polygon display="none" fill="none" stroke="#87666B" stroke-width="3" points="512.197,387.953 516.041,385.733 534.73,385.733 
	538.573,387.954 545.166,399.375 545.166,403.773 536.099,419.842 531.979,422.222 518.792,422.222 514.672,419.842 
	505.604,403.777 505.604,399.376 "/>
<polyline display="none" fill="none" stroke="#87666B" stroke-width="3" points="516.041,385.733 514.672,396.997 505.604,403.777 
	"/>
<polyline display="none" fill="none" stroke="#87666B" stroke-width="3" points="534.73,385.733 536.099,396.997 545.166,403.773 
	"/>
<polyline display="none" fill="none" stroke="#87666B" stroke-width="3" points="514.672,419.842 525.385,415.231 536.099,419.842 
	"/>
<polyline display="none" fill="none" stroke="#87666B" stroke-width="3" points="513.847,396.521 525.387,403.184 536.924,396.52 
	"/>
<line display="none" fill="none" stroke="#87666B" stroke-width="3" x1="525.385" y1="415.231" x2="525.387" y2="403.184"/>
<polygon display="none" fill="none" stroke="#87666B" stroke-width="3" points="525.386,342.261 578.136,356.378 616.77,395.012 
	630.887,447.762 616.77,500.513 578.136,539.146 525.386,553.263 472.635,539.146 434.002,500.512 419.885,447.762 434.002,395.012 
	472.635,356.378 "/>
<polygon display="none" fill="none" stroke="#87666B" stroke-width="3" stroke-linejoin="bevel" points="434.002,395.012 
	616.77,500.513 578.136,356.378 472.635,539.146 "/>
<polyline display="none" fill="none" stroke="#87666B" stroke-width="3" stroke-linejoin="bevel" points="434.002,500.512 
	472.635,356.378 578.136,539.146 616.77,395.012 434.002,500.512 578.136,539.146 "/>
<polyline display="none" fill="none" stroke="#87666B" stroke-width="3" stroke-linejoin="bevel" points="419.885,447.762 
	525.386,342.261 525.386,553.263 630.887,447.762 419.885,447.762 525.386,553.263 "/>
<line display="none" fill="none" stroke="#87666B" stroke-width="3" x1="434.002" y1="395.012" x2="578.136" y2="356.378"/>
<line display="none" fill="none" stroke="#87666B" stroke-width="3" x1="472.635" y1="356.378" x2="616.77" y2="395.012"/>
<line display="none" fill="none" stroke="#87666B" stroke-width="3" stroke-linejoin="bevel" x1="525.386" y1="342.261" x2="630.887" y2="447.762"/>
<line display="none" fill="none" stroke="#87666B" stroke-width="3" stroke-linejoin="bevel" x1="472.635" y1="539.146" x2="616.77" y2="500.513"/>
<polyline display="none" fill="none" stroke="#AB7357" stroke-width="10" points="525.386,447.763 578.136,447.762 592.275,409.151 
	525.386,342.261 458.488,409.159 472.635,447.762 525.386,447.763 "/>
<polyline display="none" fill="none" stroke="#AB7357" stroke-width="10" points="458.488,409.159 525.386,447.763 592.275,409.151 
	"/>
<polygon display="none" fill="none" stroke="#AB7357" stroke-width="10" points="486.753,514.63 525.386,553.263 563.997,514.652 
	525.386,447.763 "/>
<polyline display="none" fill="none" stroke="#AB7357" stroke-width="10" points="563.997,514.652 592.275,486.374 578.136,447.762 
	"/>
<polyline display="none" fill="none" stroke="#AB7357" stroke-width="10" points="472.635,447.762 458.488,486.378 486.753,514.63 
	"/>
<polyline display="none" fill="none" stroke="#AB7357" stroke-width="10" points="458.488,486.378 525.386,447.763 592.275,486.374 
	"/>
<line display="none" fill="none" stroke="#AB7357" stroke-width="10" x1="525.386" y1="342.261" x2="525.386" y2="447.763"/>
<polygon display="none" fill="none" stroke="#AB7357" stroke-width="10" points="563.997,514.652 616.77,500.513 608.604,470.045 
	630.887,447.762 592.275,409.151 525.385,447.761 "/>
<polyline display="none" fill="none" stroke="#AB7357" stroke-width="10" points="592.275,409.151 608.604,470.045 563.997,514.652 
	"/>
<polygon display="none" fill="none" stroke="#AB7357" stroke-width="10" points="525.385,447.761 458.497,409.151 419.885,447.762 
	442.168,470.045 434.002,500.512 486.782,514.66 "/>
<polyline display="none" fill="none" stroke="#AB7357" stroke-width="10" points="458.497,409.151 442.168,470.045 486.782,514.66 
	"/>
<polygon display="none" fill="none" stroke="#AB7357" stroke-width="10" points="525.385,447.761 592.275,409.151 578.136,356.378 
	525.385,370.517 "/>
<line display="none" fill="none" stroke="#AB7357" stroke-width="10" x1="578.136" y1="356.378" x2="525.385" y2="447.761"/>
<polygon display="none" fill="none" stroke="#AB7357" stroke-width="10" points="525.386,447.761 525.386,370.518 472.635,356.378 
	458.491,409.148 "/>
<line display="none" fill="none" stroke="#AB7357" stroke-width="10" x1="472.635" y1="356.378" x2="525.386" y2="447.761"/>
<polygon display="none" fill="none" stroke="#AB7357" stroke-width="10" points="498.742,401.606 525.385,380.873 552.028,401.606 
	563.997,380.873 525.386,342.261 486.774,380.873 "/>
<line display="none" fill="none" stroke="#AB7357" stroke-width="10" x1="525.385" y1="380.873" x2="525.386" y2="342.261"/>
<polygon display="none" fill="none" stroke="#AB7357" stroke-width="10" points="608.604,470.045 525.386,553.263 441.659,469.536 
	448.141,447.762 525.385,525.006 602.63,447.762 "/>
<line display="none" fill="none" stroke="#AB7357" stroke-width="10" x1="525.385" y1="525.006" x2="525.386" y2="553.263"/>
<polygon display="none" fill="none" stroke="#87666B" stroke-width="10" points="525.386,553.263 578.136,500.512 525.386,409.151 
	472.635,500.512 "/>
<polygon display="none" fill="none" stroke="#87666B" stroke-width="10" points="525.385,525.006 553.655,496.736 525.386,447.763 
	497.116,496.737 "/>
<path display="none" fill="none" stroke="#42333B" stroke-width="10" d="M525.386,409.151c-0.255,91.361,52.75,38.611,52.75,91.361
	s-52.75,52.751-52.75,52.751s-52.751-0.001-52.751-52.751C472.635,500.512,458.488,409.151,525.386,409.151z"/>
<polyline display="none" fill="none" stroke="#C4A18A" stroke-width="10" points="477.611,477.24 525.385,525.006 573.152,477.24 
	"/>
<polyline display="none" fill="none" stroke="#42333B" stroke-width="10" points="563.997,514.652 553.655,496.736 573.152,477.24 
	"/>
<polyline display="none" fill="none" stroke="#42333B" stroke-width="10" points="486.753,514.63 497.116,496.737 477.611,477.24 
	"/>
<line display="none" fill="none" stroke="#C4A18A" stroke-width="10" x1="525.385" y1="553.252" x2="525.385" y2="525.006"/>
<polyline display="none" fill="none" stroke="#C4A18A" stroke-width="10" stroke-linejoin="bevel" points="472.635,500.512 
	525.386,553.263 578.136,500.512 "/>
<polyline display="none" fill="none" stroke="#42333B" stroke-width="10" points="508.371,477.24 497.116,496.737 525.385,525.006 
	553.655,496.736 542.401,477.24 "/>
<polyline display="none" fill="none" stroke="#42333B" stroke-width="10" stroke-linejoin="bevel" points="497.116,496.737 
	525.386,447.763 553.655,496.736 "/>
<polyline display="none" fill="none" stroke="#C4A18A" stroke-width="10" points="553.655,465.562 525.375,495.935 497.116,465.562 
	"/>
<path display="none" fill="none" stroke="#C4A18A" stroke-width="10" d="M525.385,553.252c0,0-52.75-0.001-52.75-52.751
	s43.814-19.283,43.814-57.896h17.868c0,38.612,43.819,5.156,43.819,57.906s-52.75,52.751-52.75,52.751"/>
<path display="none" fill="none" stroke="#EB7357" stroke-width="9" d="M525.306,360.562c7.834-0.667,15.167-3.123,15.167-3.123
	c13.333-3.833,21.844,1.241,21.844,1.241c32.166,19.5,2.854,54.851,2.854,54.851s-3.698,8.574,1.47,14.926
	c-14.71,5.398-10.71,22.523-10.71,22.523s0.875,17.5,18.208,19.791c0,0-3.404,13.262,0.334,22.666
	c1.98,4.983,23.583,49.418-23.439,57.061c0,0-7.562,2.264-22.729,2.765h-5.919c-15.166-0.501-22.729-2.765-22.729-2.765
	c-47.022-7.643-25.419-52.077-23.438-57.061c3.738-9.404,0.333-22.666,0.333-22.666c17.333-2.291,18.208-19.791,18.208-19.791
	s4-17.125-10.709-22.523c5.167-6.352,1.469-14.926,1.469-14.926s-29.312-35.351,2.854-54.851c0,0,8.511-5.075,21.844-1.241
	c0,0,7.333,2.456,15.167,3.123H525.306z"/>
<polygon display="none" fill="#524F4A" stroke="#524F4A" stroke-width="9" stroke-linecap="round" stroke-linejoin="round" points="
	525.384,429.778 535.767,429.778 525.345,244.106 515.004,429.778 "/>
<path display="none" fill="none" stroke="#524F4A" stroke-width="5" stroke-linecap="round" d="M515.305,452.436
	c0,0-0.968,2.085-2.136-2.604c-0.383-1.541-2.632-5.022-5.685-2.986c-2.317,1.546-2.475,4.884-2.175,13.469
	c0.325,9.292-0.69,12.854-2.258,15.291c-1.568,2.438-3.586,3.51-5.834,3.092c-1.292-0.24-3.025-2.5-1.867-5.508"/>
<path display="none" fill="none" stroke="#524F4A" stroke-width="5" stroke-linecap="round" d="M535.766,452.436
	c0,0,0.969,2.085,2.136-2.604c0.384-1.541,2.632-5.022,5.685-2.986c2.317,1.546,2.475,4.884,2.175,13.469
	c-0.325,9.292,0.69,12.854,2.258,15.291c1.567,2.438,3.587,3.51,5.834,3.092c1.292-0.24,3.025-2.5,1.866-5.508"/>
<polygon display="none" fill="none" stroke="#1D1730" stroke-width="10" points="458.496,486.374 486.774,486.374 525.386,416.862 
	563.996,486.374 592.275,486.374 525.385,370.517 "/>
<rect x="506.069" y="373.162" display="none" fill="none" stroke="#1D1730" stroke-width="10" width="38.633" height="146.668"/>
<rect x="452.051" y="427.179" display="none" fill="none" stroke="#1D1730" stroke-width="10" width="146.668" height="38.633"/>
<polygon display="none" fill="none" stroke="#B3736B" stroke-width="10" points="452.051,427.18 506.07,427.18 506.069,373.162 
	544.702,373.162 544.702,427.179 598.719,427.179 598.719,465.812 544.702,465.812 544.702,519.83 506.071,519.83 504.802,465.812 
	452.051,465.812 "/>
<polygon display="none" fill="none" stroke="#B3736B" stroke-width="10" points="459.872,484.693 498.069,446.496 459.872,408.298 
	487.189,380.981 525.386,419.177 563.581,380.982 590.898,408.299 552.703,446.495 590.899,484.691 563.583,512.007 
	524.489,474.708 487.188,512.009 "/>
<polygon display="none" fill="none" stroke="#1D1730" stroke-width="10" points="459.872,484.693 498.069,446.496 459.872,408.298 
	487.189,380.981 525.386,419.177 563.581,380.982 590.898,408.299 552.703,446.495 590.899,484.691 563.583,512.007 
	524.489,474.708 487.188,512.009 "/>
<polygon display="none" fill="none" stroke="#EB7357" stroke-width="10" points="458.496,486.374 486.774,486.374 525.386,416.862 
	563.996,486.374 592.275,486.374 538.544,393.309 512.3,393.181 "/>
<polygon display="none" fill="none" stroke="#B3736B" stroke-width="12" points="487.189,380.981 501.22,395.012 501.22,497.977 
	487.188,512.009 459.872,484.693 480.546,464.018 480.546,428.585 459.872,408.298 "/>
<polygon display="none" fill="none" stroke="#B3736B" stroke-width="12" points="549.551,395.012 563.997,380.873 590.898,408.299 
	570.225,428.586 570.225,464.016 590.899,484.691 563.583,512.007 549.551,498.62 "/>
<polyline display="none" fill="none" stroke="#B3736B" stroke-width="12" points="501.22,497.977 524.489,474.708 549.551,498.62 
	"/>
<polyline display="none" fill="none" stroke="#B3736B" stroke-width="12" points="501.22,395.012 525.386,419.177 549.551,395.012 
	"/>
<polyline display="none" fill="none" stroke="#B3736B" stroke-width="12" stroke-linejoin="round" points="480.546,464.018 
	501.22,446.44 480.546,428.585 "/>
<polyline display="none" fill="none" stroke="#B3736B" stroke-width="12" stroke-linejoin="round" points="570.225,428.586 
	549.551,446.44 570.225,464.016 "/>
<path display="none" fill="none" stroke="#B3736B" stroke-width="12" d="M525.386,347.762c0,0,28.166,0,33.434-30.9
	c3.315-25.506-22.935-31.422-33.815-65.593c-8.786,32.17-36.12,40.836-33.054,65.593
	C496.552,347.762,525.386,347.762,525.386,347.762z"/>
<polygon display="none" fill="#B3736B" stroke="#B3736B" stroke-width="12" points="525.385,387.279 472.634,478.664 
	578.136,478.664 "/>
<circle display="none" fill="none" stroke="#1F2421" stroke-width="12" cx="472.634" cy="478.664" r="11.584"/>
<circle display="none" fill="none" stroke="#1F2421" stroke-width="12" cx="525.386" cy="384.746" r="11.584"/>
<circle display="none" fill="none" stroke="#1F2421" stroke-width="12" cx="578.137" cy="478.664" r="11.584"/>
<circle display="none" fill="none" stroke="#1F2421" stroke-width="25" cx="525.385" cy="447.839" r="158.252"/>
<line display="none" fill="none" stroke="#1F2421" stroke-width="16" stroke-linecap="round" x1="489.111" y1="450.121" x2="508.309" y2="416.862"/>
<line display="none" fill="none" stroke="#1F2421" stroke-width="16" stroke-linecap="round" x1="542.461" y1="416.862" x2="560.298" y2="447.762"/>
<line display="none" fill="none" stroke="#1F2421" stroke-width="16" stroke-linecap="round" x1="508.309" y1="478.665" x2="542.461" y2="478.665"/>
<rect x="419.884" y="342.261" display="none" fill="none" stroke="#524F4A" stroke-width="10" width="211.003" height="211.003"/>
<line display="none" fill="none" stroke="#524F4A" stroke-width="10" x1="419.884" y1="553.264" x2="630.887" y2="342.261"/>
<line display="none" fill="none" stroke="#524F4A" stroke-width="10" x1="419.884" y1="342.261" x2="630.887" y2="553.264"/>
<circle display="none" fill="none" stroke="#524F4A" stroke-width="10" cx="525.386" cy="447.762" r="105.501"/>
<circle display="none" fill="none" stroke="#524F4A" stroke-width="10" cx="630.887" cy="447.762" r="105.501"/>
<circle display="none" fill="none" stroke="#524F4A" stroke-width="10" cx="419.885" cy="447.762" r="105.501"/>
<circle display="none" fill="none" stroke="#524F4A" stroke-width="10" cx="525.386" cy="553.263" r="105.501"/>
<circle display="none" fill="none" stroke="#524F4A" stroke-width="10" cx="525.386" cy="342.261" r="105.501"/>
<line display="none" fill="none" stroke="#524F4A" stroke-width="10" x1="736.388" y1="447.762" x2="314.384" y2="447.762"/>
<line display="none" fill="none" stroke="#524F4A" stroke-width="10" x1="525.386" y1="658.764" x2="525.386" y2="236.76"/>
<rect x="450.785" y="373.161" transform="matrix(-0.7071 -0.7071 0.7071 -0.7071 580.2675 1135.8822)" display="none" fill="none" stroke="#524F4A" stroke-width="10" width="149.201" height="149.202"/>
<rect x="630.887" y="342.261" display="none" fill="none" stroke="#524F4A" stroke-width="10" width="211.002" height="211.002"/>
<rect x="208.883" y="342.261" display="none" fill="none" stroke="#524F4A" stroke-width="10" width="211.002" height="211.002"/>
<rect x="419.885" y="131.259" display="none" fill="none" stroke="#524F4A" stroke-width="10" width="211.002" height="211.002"/>
<rect x="419.884" y="553.264" display="none" fill="none" stroke="#524F4A" stroke-width="10" width="211.003" height="211.003"/>
<polyline display="none" fill="none" stroke="#524F4A" stroke-width="10" points="208.883,553.263 419.885,342.261 630.887,131.259 
	"/>
<polyline display="none" fill="none" stroke="#524F4A" stroke-width="10" points="208.883,342.261 419.884,553.264 630.887,764.267 
	"/>
<polyline display="none" fill="none" stroke="#524F4A" stroke-width="10" points="419.884,764.267 630.887,553.264 841.889,342.261 
	"/>
<polyline display="none" fill="none" stroke="#524F4A" stroke-width="10" points="841.889,553.263 630.887,342.261 419.885,131.259 
	"/>
<circle display="none" fill="none" stroke="#524F4A" stroke-width="10" cx="314.384" cy="447.762" r="105.501"/>
<circle display="none" fill="none" stroke="#524F4A" stroke-width="10" cx="736.388" cy="447.762" r="105.501"/>
<circle display="none" fill="none" stroke="#524F4A" stroke-width="10" cx="525.386" cy="236.76" r="105.501"/>
<circle display="none" fill="none" stroke="#524F4A" stroke-width="10" cx="525.386" cy="658.765" r="105.502"/>
<line display="none" fill="none" stroke="#524F4A" stroke-width="10" x1="208.883" y1="447.762" x2="314.384" y2="447.762"/>
<line display="none" fill="none" stroke="#524F4A" stroke-width="10" x1="736.388" y1="447.762" x2="841.889" y2="447.762"/>
<line display="none" fill="none" stroke="#524F4A" stroke-width="10" x1="525.386" y1="236.76" x2="525.386" y2="131.259"/>
<line display="none" fill="none" stroke="#524F4A" stroke-width="10" x1="525.386" y1="764.267" x2="525.386" y2="658.765"/>
<circle display="none" fill="none" stroke="#524F4A" stroke-width="10" cx="419.885" cy="342.261" r="105.501"/>
<circle display="none" fill="none" stroke="#524F4A" stroke-width="10" cx="630.887" cy="342.261" r="105.501"/>
<circle display="none" fill="none" stroke="#524F4A" stroke-width="10" cx="419.884" cy="553.264" r="105.502"/>
<circle display="none" fill="none" stroke="#524F4A" stroke-width="10" cx="630.887" cy="553.263" r="105.501"/>
<rect x="450.785" y="416.862" display="none" fill="none" stroke="#524F4A" stroke-width="10" width="149.201" height="61.801"/>
<rect x="494.485" y="373.162" display="none" fill="none" stroke="#524F4A" stroke-width="10" width="61.801" height="149.201"/>
<rect x="423.467" y="420.445" transform="matrix(0.7071 -0.7071 0.7071 0.7071 -162.7338 502.6512)" display="none" fill="none" stroke="#524F4A" stroke-width="10" width="203.836" height="54.635"/>
<rect x="423.467" y="420.444" transform="matrix(-0.7071 -0.7071 0.7071 -0.7071 580.2731 1135.8813)" display="none" fill="none" stroke="#524F4A" stroke-width="10" width="203.837" height="54.636"/>
<line display="none" fill="none" stroke="#524F4A" stroke-width="10" x1="419.885" y1="711.516" x2="630.888" y2="711.516"/>
<polyline display="none" fill="none" stroke="#524F4A" stroke-width="10" points="578.137,711.516 578.137,644.646 472.635,644.647 
	472.635,711.516 "/>
<circle display="none" fill="none" stroke="#524F4A" stroke-width="10" cx="525.386" cy="764.267" r="105.502"/>
<polygon display="none" fill="none" stroke="#4A384D" stroke-width="14" points="525.386,553.264 578.136,539.146 616.77,500.513 
	630.887,447.762 616.77,395.012 578.136,356.378 525.386,342.261 472.635,356.378 434.002,395.012 419.884,446.496 434.002,500.512 
	472.635,539.146 "/>
<line display="none" fill="none" stroke="#4A384D" stroke-width="14" x1="472.635" y1="539.146" x2="616.77" y2="395.012"/>
<line display="none" fill="none" stroke="#4A384D" stroke-width="14" x1="472.635" y1="356.378" x2="525.386" y2="553.264"/>
<line display="none" fill="none" stroke="#4A384D" stroke-width="14" x1="434.002" y1="395.012" x2="616.77" y2="500.513"/>
<line display="none" fill="none" stroke="#4A384D" stroke-width="14" x1="419.884" y1="446.496" x2="578.136" y2="539.146"/>
<rect x="503.102" y="364.545" display="none" fill="none" stroke="#4A384D" stroke-width="14" width="44.568" height="166.435"/>
<polygon display="none" fill="none" stroke="#87A1DB" stroke-width="6" stroke-linecap="round" stroke-linejoin="round" points="
	450.785,311.361 599.986,311.361 556.286,267.661 494.484,267.662 "/>
<line display="none" fill="none" stroke="#87A1DB" stroke-width="6" stroke-linecap="round" stroke-linejoin="round" x1="494.484" y1="267.662" x2="599.986" y2="311.361"/>
<line display="none" fill="none" stroke="#87A1DB" stroke-width="6" stroke-linecap="round" stroke-linejoin="round" x1="450.785" y1="311.361" x2="556.286" y2="267.661"/>
<path display="none" fill="none" stroke="#EB7357" stroke-width="10" stroke-linecap="round" stroke-linejoin="round" d="
	M525.385,530.98c0,0,21.603-1.17,22.285-22.3s0-127.808,0-127.808s-0.002-16.328-22.285-16.328
	c-22.283,0-22.283-22.284-22.283-22.284l0,188.719"/>
<circle display="none" fill="none" stroke="#EB7357" stroke-width="10" stroke-linecap="round" stroke-linejoin="round" cx="525.384" cy="302.094" r="21.698"/>
<path display="none" fill="none" stroke="#EB7357" stroke-width="10" stroke-linecap="round" stroke-linejoin="round" d="
	M503.687,302.094c0,0,21.699-49.68,21.699-65.334"/>
<rect x="450.783" y="373.163" transform="matrix(-0.7071 0.7071 -0.7071 -0.7071 1213.5057 392.8903)" display="none" fill="none" stroke="#4A2E4F" stroke-width="5" width="149.204" height="149.198"/>
<rect x="472.637" y="395.014" display="none" fill="none" stroke="#4A2E4F" stroke-width="5" width="105.504" height="105.502"/>
<polygon display="none" fill="none" stroke="#4A2E4F" stroke-width="5" points="525.39,500.518 472.637,447.766 525.39,395.014 
	578.136,447.766 "/>
<polygon display="none" fill="none" stroke="#524F4A" stroke-width="5" points="419.884,395.012 472.637,342.261 525.39,395.014 
	578.141,342.261 630.887,395.012 578.136,447.766 630.887,500.518 578.141,553.264 525.39,500.518 472.637,553.264 419.884,500.518 
	472.637,447.766 "/>
<polygon fill="#42333B" stroke="#FFFFFF" stroke-width="20" points="472.569,328.106 419.884,328.106 419.884,500.513 
	472.569,500.448 "/>
<rect x="499.043" y="356.378" fill="#42333B" stroke="#FFFFFF" stroke-width="20" width="52.686" height="196.885"/>
<polygon fill="#42333B" stroke="#FFFFFF" stroke-width="20" points="629.943,250.878 578.137,250.878 578.137,522.363 
	630.739,522.363 "/>
<line fill="#42333B" stroke="#FFFFFF" stroke-width="20" x1="551.729" y1="416.862" x2="499.043" y2="478.664"/>
<line fill="#42333B" stroke="#FFFFFF" stroke-width="20" x1="472.569" y1="328.106" x2="419.885" y2="386.621"/>
<line fill="#42333B" stroke="#FFFFFF" stroke-width="20" x1="578.137" y1="395.011" x2="630.209" y2="341.584"/>
<rect x="419.884" y="328.106" display="none" fill="#42333B" stroke="#FFFFFF" stroke-width="10" width="52.686" height="225.158"/>
<line display="none" fill="#42333B" stroke="#FFFFFF" stroke-width="10" x1="419.884" y1="395.011" x2="472.569" y2="342.329"/>
<polygon display="none" fill="#42333B" stroke="#FFFFFF" stroke-width="10" points="499.043,553.263 551.729,553.264 
	551.729,474.176 578.202,474.176 578.203,553.263 630.888,553.264 630.888,421.418 498.985,421.418 "/>
<line display="none" fill="#42333B" stroke="#FFFFFF" stroke-width="10" x1="551.729" y1="421.418" x2="551.729" y2="474.176"/>
<line display="none" fill="#42333B" stroke="#FFFFFF" stroke-width="10" x1="578.202" y1="474.176" x2="630.888" y2="421.418"/>
<polygon display="none" fill="none" stroke="#3D5759" stroke-width="20" points="419.885,553.263 472.637,553.264 472.569,328.106 
	419.884,328.106 "/>
<polygon display="none" fill="none" stroke="#3D5759" stroke-width="20" points="499.043,553.263 551.729,553.264 551.729,474.176 
	578.202,474.176 578.203,553.263 630.888,553.264 630.888,421.418 498.985,421.418 "/>
<rect x="419.884" y="328.106" display="none" fill="none" stroke="#524F4A" stroke-width="20" width="52.686" height="225.158"/>
<polyline display="none" fill="none" stroke="#524F4A" stroke-width="20" stroke-linejoin="round" points="419.884,395.011 
	472.569,447.699 419.885,500.519 472.569,553.264 "/>
<polyline display="none" fill="none" stroke="#42333B" stroke-width="13" points="489.635,517.514 419.884,447.763 525.386,342.261 
	558.819,375.695 525.386,409.128 564.019,447.762 597.043,481.606 525.386,553.263 489.635,517.514 525.385,481.606 "/>
<polyline display="none" fill="none" stroke="#42333B" stroke-width="13" points="453.727,481.606 525.386,409.128 491.952,375.695 
	"/>
</svg>
